<?xml version="1.0" encoding="UTF-8"?>
<svg id="Layer_1" data-name="Layer 1" xmlns="http://www.w3.org/2000/svg" viewBox="0 0 24 24">
  <defs>
    <style>
      .cls-1 {
        fill: #bf312f;
      }

      .cls-2 {
        fill: #231f20;
      }
    </style>
  </defs>
  <g>
    <path class="cls-1" d="m21.68,7.37c-.28,2.66-1.53,5.15-3.16,7.28s-3.63,3.93-5.62,5.73c-2.13-2.06-4.53-3.83-6.5-6.04-1.98-2.21-3.53-4.98-3.48-7.94.01-.34.04-.7.21-.99.25-.44.75-.68,1.23-.83,3.02-.96,6.62.5,8.17,3.26-.09-1.16.52-2.33,1.43-3.1.99-.83,2.28-1.23,3.56-1.45,1-.16,2.1-.21,2.93.36,1.14.77,1.37,2.35,1.23,3.72Z"/>
    <path class="cls-2" d="m21.18,7.37c-.62,5.38-4.85,9.23-8.63,12.66h.71c-2.83-2.72-6.23-5.02-8.29-8.44-.94-1.56-1.65-3.43-1.54-5.29s3.19-1.63,4.45-1.32c1.76.44,3.31,1.54,4.22,3.11.24.42.95.25.93-.25-.11-2.55,2.49-3.72,4.62-4.07,1.09-.18,2.38-.18,3.06.84.53.8.55,1.84.47,2.75-.06.64.94.64,1,0,.11-1.19-.02-2.52-.78-3.5-.89-1.15-2.33-1.29-3.68-1.11-2.68.36-5.83,1.94-5.69,5.08l.93-.25c-.91-1.57-2.37-2.73-4.07-3.35s-3.73-.7-5.31.12c-1.91.99-1.11,3.98-.52,5.57.77,2.05,2.08,3.84,3.59,5.41,1.85,1.92,3.98,3.54,5.9,5.39.2.19.5.18.71,0,4.02-3.64,8.27-7.67,8.93-13.36.07-.64-.93-.63-1,0Z"/>
  </g>
  <path class="cls-2" d="m13.14,7.94c-.06-.12-.12-.23-.18-.35l-.08-.1s-.1-.08-.16-.1c-.04-.02-.08-.03-.13-.03-.07-.01-.13-.01-.2,0l-.12.05-.1.08s-.08.1-.1.16c-.03.06-.05.12-.04.19,0,.14.05.28.13.4.04.05.08.1.1.16l-.05-.12s.01.03.01.05c.02.07.05.12.09.17.04.05.08.1.14.13.06.04.12.06.19.06.07.01.13.01.2,0l.12-.05c.08-.04.13-.1.18-.18l.05-.12c.02-.09.02-.18,0-.27,0-.01,0-.03-.01-.04-.02-.05-.04-.1-.07-.15-.01-.03-.03-.05-.05-.07-.03-.05-.07-.09-.09-.15l.05.12s0-.03-.01-.04l.02.13s0-.01,0-.02l-.93.25c.06.12.12.23.18.35.03.06.07.11.13.14.05.04.1.07.17.09.07.02.13.02.2,0,.07,0,.13-.02.19-.06l.1-.08c.06-.06.1-.14.13-.22l.02-.13c0-.09-.02-.17-.07-.25h0Z"/>
</svg>