<?xml version="1.0" encoding="UTF-8"?>
<svg id="Layer_1" data-name="Layer 1" xmlns="http://www.w3.org/2000/svg" viewBox="0 0 24 24">
  <defs>
    <style>
      .cls-1 {
        fill: #231f20;
      }
    </style>
  </defs>
  <path class="cls-1" d="m12.59,19c-.92-.48-1.65-1.18-2.39-1.89-.78-.75-1.56-1.49-2.31-2.26-1.49-1.52-2.92-3.14-4.01-4.98-.92-1.55-1.72-4.02.05-5.33.73-.54,1.68-.67,2.56-.7s1.85-.02,2.72.18c2.62.6,2.55,4.08,2.52,6.19,0,.47.72.72.93.25.74-1.61,1.31-3.87,3.16-4.55s3.62,1.38,3.81,3.06c.12,1.05-.51,2.02-1.05,2.87s-1.2,1.69-1.85,2.5c-1.38,1.73-2.77,3.45-4.16,5.17-.4.5.3,1.21.71.71,1.34-1.66,2.68-3.33,4.02-4.99,1.16-1.44,2.51-2.97,3.13-4.74,1.06-2.99-2.32-6.95-5.41-5.29-1.81.98-2.41,3.02-3.21,4.77l.93.25c.03-2.19.03-5.21-1.99-6.62-.88-.61-2.01-.68-3.05-.73s-2.13-.04-3.14.28c-2.09.67-3,2.7-2.57,4.79.49,2.37,2.32,4.51,3.89,6.26.94,1.05,1.95,2.04,2.97,3.02s1.99,2.02,3.24,2.67c.57.3,1.08-.57.5-.86h0Z"/>
</svg>