<?xml version="1.0" encoding="UTF-8"?>
<svg id="Layer_1" data-name="Layer 1" xmlns="http://www.w3.org/2000/svg" viewBox="0 0 24 24">
  <defs>
    <style>
      .cls-1 {
        fill: #231f20;
      }
    </style>
  </defs>
  <path class="cls-1" d="m7.52,9.25v6.73c0,1.14,0,2.28,0,3.42,0,.8-.01,1.58.97,1.65,1.06.08,2.19-.04,3.25-.13s2.19-.22,3.28-.39c.79-.13,2.01-.07,2.19-1.05.19-1.04.2-2.14.27-3.19.17-2.57.21-5.15.16-7.73l-.75.43c1.4.98,2.94-1.09,1.58-2.12-.54-.41-1.22-.33-1.85-.3-.27.01-.69.07-.91-.14-.23-.23-.21-.76-.34-1.05-.33-.75-1.09-.81-1.82-.85s-1.51,0-2.2.27c-.65.26-1.11.72-1.38,1.37-.1.25-.13.49-.42.58-.18.06-.46,0-.65,0-.62,0-1.24-.01-1.86-.02-.27,0-.5.23-.5.5,0,.67,0,1.33,0,2,0,.28.23.49.5.5l.85.02c.64.02.64-.98,0-1l-.85-.02.5.5c0-.67,0-1.33,0-2l-.5.5c.83,0,1.69.07,2.52.02.57-.04.95-.32,1.19-.83.26-.54.41-.97,1.01-1.2.56-.21,1.2-.21,1.79-.18.26.01.73-.02.9.22.15.22.14.62.24.87.17.45.51.77.97.9.51.14,1.03.04,1.55.04.19,0,.49-.02.65.12.37.33-.08.74-.47.47-.31-.22-.76.07-.75.43.06,2.45.01,4.91-.13,7.36-.04.65-.09,1.31-.14,1.96-.02.24-.04.49-.06.73-.01.16-.03.33-.05.49.01.2-.09.29-.3.26-.49.23-1.27.22-1.8.3-.64.09-1.28.16-1.92.22-.57.05-1.13.09-1.7.12-.32.02-.65.03-.97.04-.14,0-.88.11-.97.01-.19-.2-.05-1.2-.05-1.51v-1.96c0-2.45,0-4.89,0-7.34,0-.64-1-.64-1,0h0Z"/>
  <path class="cls-1" d="m10.22,10.41l.14,6.64c.01.64,1.01.64,1,0l-.14-6.64c-.01-.64-1.01-.64-1,0h0Z"/>
  <path class="cls-1" d="m13.68,10.26l.2,6.64c.02.64,1.02.64,1,0l-.2-6.64c-.02-.64-1.02-.64-1,0h0Z"/>
</svg>