<?xml version="1.0" encoding="UTF-8"?>
<svg id="Layer_1" data-name="Layer 1" xmlns="http://www.w3.org/2000/svg" viewBox="0 0 24 24">
  <defs>
    <style>
      .cls-1 {
        fill: #231f20;
      }
    </style>
  </defs>
  <path class="cls-1" d="m4.24,14.61l-.52,5.26c-.03.28.25.49.5.5,3.87.2,7.75.35,11.63.47.95.03,1.9.05,2.85.07.59.01,1.36.12,1.55-.61.11-.39.04-.88.05-1.29,0-.49.02-.98.03-1.47.02-.98.04-1.97.06-2.95.01-.64-.99-.64-1,0-.02.86-.03,1.72-.05,2.58s-.1,1.73-.05,2.58v.25c.06-.09.03-.11-.09-.08-.2.02-.42,0-.62-.01-.45-.01-.91-.02-1.36-.03-.87-.02-1.73-.05-2.6-.07-3.46-.11-6.93-.25-10.39-.43l.5.5.52-5.26c.06-.64-.94-.64-1,0h0Z"/>
  <path class="cls-1" d="m12.68,17.19c-.15-4.34,0-8.68.43-12.99.06-.64-.94-.64-1,0-.43,4.32-.58,8.66-.43,12.99.02.64,1.02.64,1,0h0Z"/>
  <path class="cls-1" d="m7.81,8.93c.71-.77,1.45-1.52,2.24-2.22.4-.36.81-.71,1.23-1.05.22-.18.45-.36.68-.53.19-.14.44-.41.67-.42.38-.01.92.51,1.22.73.42.3.82.63,1.21.97.76.67,1.44,1.41,2.07,2.2.4.51,1.1-.21.71-.71-.73-.93-1.54-1.78-2.45-2.53-.42-.35-.86-.68-1.31-.99-.42-.29-.92-.71-1.45-.71s-.97.44-1.37.74c-.49.38-.98.77-1.45,1.18-.95.82-1.86,1.71-2.71,2.63-.43.47.27,1.18.71.71h0Z"/>
</svg>